{"title":"Limitless [2011] UNRATED BRRip XviD - CODY","uid":6512990,"size":840943485,"categoryP":"video","categoryS":"movies","magnet":"?xt=urn:btih:95f3316652360b4062bd2c8197117c38957967ab&amp;dn=Limitless+%5B2011%5D+UNRATED+BRRip+XviD+-+CODY&amp;tr=udp%3A%2F%2Ftracker.openbittorrent.com%3A80&amp;tr=udp%3A%2F%2Fopen.demonii.com%3A1337&amp;tr=udp%3A%2F%2Ftracker.coppersurfer.tk%3A6969&amp;tr=udp%3A%2F%2Fexodus.desync.com%3A6969","seeders":0,"leechers":0,"uploader":"CODYBOSS1969","files":4,"time":1309706966,"description":"General\nComplete name                    : Limitless [2011] UNRATED BRRip XviD - CODY.avi\nFormat                           : AVI\nFormat/Info                      : Audio Video Interleave\nFile size                        : 802 MiB\nDuration                         : 1h 45mn\nOverall bit rate                 : 1 062 Kbps\nWriting application              : VirtualDubMod 1.5.10.2 (build 2540/release)\nWriting library                  : VirtualDubMod build 2540/release\n\nVideo\nID                               : 0\nFormat                           : MPEG-4 Visual\nFormat profile                   : Advanced Simple@L5\nFormat settings, BVOP            : 4\nFormat settings, QPel            : No\nFormat settings, GMC             : No warppoints\nFormat settings, Matrix          : Default (H.263)\nMuxing mode                      : Packed bitstream\nCodec ID                         : XVID\nCodec ID/Hint                    : XviD\nDuration                         : 1h 45mn\nBit rate                         : 925 Kbps\nWidth                            : 720 pixels\nHeight                           : 296 pixels\nDisplay aspect ratio             : 2.40:1\nFrame rate                       : 23.976 fps\nColor space                      : YUV\nChroma subsampling               : 4:2:0\nBit depth                        : 8 bits\nScan type                        : Progressive\nCompression mode                 : Lossy\nBits/(Pixel*Frame)               : 0.181\nStream size                      : 698 MiB (87%)\nWriting library                  : XviD 1.2.0.dev47 (UTC 2006-11-01)\n\nAudio\nID                               : 1\nFormat                           : MPEG Audio\nFormat version                   : Version 1\nFormat profile                   : Layer 3\nCodec ID                         : 55\nCodec ID/Hint                    : MP3\nDuration                         : 1h 45mn\nBit rate mode                    : Constant\nBit rate                         : 128 Kbps\nChannel(s)                       : 2 channels\nSampling rate                    : 48.0 KHz\nCompression mode                 : Lossy\nStream size                      : 96.6 MiB (12%)\nAlignment                        : Aligned on interleaves\nInterleave, duration             : 42 ms (1.00 video frame)\nInterleave, preload duration     : 504 ms\nWriting library                  : LAME3.97 \nEncoding settings                : -m s -V 4 -q 2 -lowpass 17 -b 128\n\n\n\n\n\nSubtitles included               : Romanian\n\n\n\n\nIMDB link:                        &lt;a href=&quot; http://www.imdb.com/title/tt1219289/&quot; rel=&quot;nofollow&quot; target=&quot;_NEW&quot;&gt; http://www.imdb.com/title/tt1219289/&lt;/a&gt;\n\n\n\n\nPlaese seed alt least 1,5:1. This way this torrent will have the chance to survive!\n\n\n\n\nThanks. Enjoy !!\n","torrent":{"xt":"urn:btih:95f3316652360b4062bd2c8197117c38957967ab","amp;dn":"Limitless+%5B2011%5D+UNRATED+BRRip+XviD+-+CODY","amp;tr":["udp%3A%2F%2Ftracker.openbittorrent.com%3A80","udp%3A%2F%2Fopen.demonii.com%3A1337","udp%3A%2F%2Ftracker.coppersurfer.tk%3A6969","udp%3A%2F%2Fexodus.desync.com%3A6969"],"infoHash":"95f3316652360b4062bd2c8197117c38957967ab","infoHashBuffer":{"type":"Buffer","data":[149,243,49,102,82,54,11,64,98,189,44,129,151,17,124,56,149,121,103,171]},"announce":[],"urlList":[]}}